<svg xmlns="http://www.w3.org/2000/svg" viewBox="0 0 166.47 182.65">
  <title>logo_icon_white</title>
  <g id="Layer_2" data-name="Layer 2">
    <g id="Layer_1-2" data-name="Layer 1">
      <path d="M166.22,57.25h0a30.87,30.87,0,0,0-12.08-20.82A32.06,32.06,0,0,0,151,34.34l-9.14-5.26L129,21.64,99.44,4.58l-.75-.44A31,31,0,0,0,84.26,0a30.33,30.33,0,0,0-7.83.74,31.05,31.05,0,0,0-8.66,3.38L62,7.47,48.64,15.19l-10.3,5.94-7.27,4.2h0l-9.18,5.31h0l-6.41,3.7a31,31,0,0,0-7,5.55h0A30.84,30.84,0,0,0,2,50.19,29.35,29.35,0,0,0,.89,53.75,31.17,31.17,0,0,0,0,61.12v60.41a31,31,0,0,0,.72,6.63,30.28,30.28,0,0,0,1,3.53,31,31,0,0,0,13.74,16.62L21,151.5l10.32,5.95,7.27,4.2,9.17,5.3h0L61.7,175l6.07,3.51a30.92,30.92,0,0,0,30.92,0l.83-.49,9.39-5.41,2.81-1.63,17.41-10,13.26-7.66,8.62-5a31.82,31.82,0,0,0,3.59-2.43,30.88,30.88,0,0,0,9.62-12.78,30.46,30.46,0,0,0,2.1-8.58h0a29.44,29.44,0,0,0,.15-3V61.12A30.93,30.93,0,0,0,166.22,57.25ZM117.51,73.93a121.38,121.38,0,0,0-10.2,11.3,124.34,124.34,0,0,0-14.64,23.38c-.57,1.18-1.11,2.38-1.64,3.58A117.43,117.43,0,0,0,86,125.89q-1.6,5.28-2.74,10.75a121,121,0,0,0-10-29.24,120.65,120.65,0,0,0-8-13.84A120.39,120.39,0,0,0,53.86,79c-1.68-1.86-3.43-3.67-5.24-5.41h0c-1.43-1.41-2.91-2.77-4.42-4.1-.82-.73-1.65-1.44-2.49-2.14q3.21,1.15,6.48,2.13h0a120.43,120.43,0,0,0,18.61,4c1.9.26,3.83.47,5.77.64,3.52.3,7.08.46,10.67.46q2,0,3.93-.06,4-.14,7.88-.51a121.59,121.59,0,0,0,29.72-6.66Q121,70.5,117.51,73.93Z" style="fill: #fff"/>
    </g>
  </g>
</svg>
