<?xml version="1.0" encoding="iso-8859-1"?>
<!-- Generator: Adobe Illustrator 19.0.0, SVG Export Plug-In . SVG Version: 6.00 Build 0)  -->
<svg version="1.1" id="Capa_1" xmlns="http://www.w3.org/2000/svg" xmlns:xlink="http://www.w3.org/1999/xlink" x="0px" y="0px"
	 viewBox="0 0 512 512" style="enable-background:new 0 0 512 512;" xml:space="preserve">
<linearGradient id="SVGID_1_" gradientUnits="userSpaceOnUse" x1="0" y1="258" x2="512" y2="258" gradientTransform="matrix(1 0 0 -1 0 514)">
	<stop  offset="0" style="stop-color:#00F2FE"/>
	<stop  offset="0.021" style="stop-color:#03EFFE"/>
	<stop  offset="0.293" style="stop-color:#24D2FE"/>
	<stop  offset="0.554" style="stop-color:#3CBDFE"/>
	<stop  offset="0.796" style="stop-color:#4AB0FE"/>
	<stop  offset="1" style="stop-color:#4FACFE"/>
</linearGradient>
<path style="fill:url(#SVGID_1_);" d="M432,236h-76c-44.112,0-80-35.888-80-80V80c0-44.112,35.888-80,80-80h76
	c44.112,0,80,35.888,80,80v76C512,200.112,476.112,236,432,236z M356,40c-22.056,0-40,17.944-40,40v76c0,22.056,17.944,40,40,40h76
	c22.056,0,40-17.944,40-40V80c0-22.056-17.944-40-40-40H356z M156,236H80c-44.112,0-80-35.888-80-80V80C0,35.888,35.888,0,80,0h76
	c44.112,0,80,35.888,80,80v76C236,200.112,200.112,236,156,236z M80,40c-22.056,0-40,17.944-40,40v76c0,22.056,17.944,40,40,40h76
	c22.056,0,40-17.944,40-40V80c0-22.056-17.944-40-40-40H80z M156,512H80c-44.112,0-80-35.888-80-80v-76c0-44.112,35.888-80,80-80h76
	c44.112,0,80,35.888,80,80v76C236,476.112,200.112,512,156,512z M80,316c-22.056,0-40,17.944-40,40v76c0,22.056,17.944,40,40,40h76
	c22.056,0,40-17.944,40-40v-76c0-22.056-17.944-40-40-40H80z M512,432c0-11.046-8.954-20-20-20s-20,8.954-20,20
	c0,22.056-17.944,40-40,40h-76c-22.056,0-40-17.944-40-40v-76c0-22.056,17.944-40,40-40h76c15.905,0,30.301,9.419,36.675,23.996
	c4.425,10.12,16.218,14.735,26.338,10.312c10.121-4.426,14.737-16.218,10.312-26.338C492.582,294.829,463.8,276,432,276h-76
	c-44.112,0-80,35.888-80,80v76c0,44.112,35.888,80,80,80h76C476.112,512,512,476.112,512,432z"/>
<g>
</g>
<g>
</g>
<g>
</g>
<g>
</g>
<g>
</g>
<g>
</g>
<g>
</g>
<g>
</g>
<g>
</g>
<g>
</g>
<g>
</g>
<g>
</g>
<g>
</g>
<g>
</g>
<g>
</g>
</svg>
