<svg xmlns="http://www.w3.org/2000/svg" viewBox="0 0 1116.63 294.74">
  <title>logo_with_wordmark_white</title>
  <g id="Layer_2" data-name="Layer 2">
    <g id="Layer_1-2" data-name="Layer 1">
      <g>
        <rect width="1116.63" height="294.74" style="fill: #fff;opacity: 0"/>
        <g>
          <path d="M319.52,160.81V98.06H347v54.07c0,13,6.14,19.71,16.63,19.71s17.18-6.69,17.18-19.71V98.06h27.49V195H380.82V181.25c-6.33,8.13-14.46,15.55-28.39,15.55C331.64,196.8,319.52,183.06,319.52,160.81Z" style="fill: #fff"/>
          <path d="M431.13,98.06h27.48v19.53c5.61-13.38,14.65-22.06,30.93-21.33V125h-1.45c-18.27,0-29.48,11-29.48,34.18V195H431.13Z" style="fill: #fff"/>
          <path d="M498.4,147.07v-.36c0-27.67,19.71-50.45,47.92-50.45,32.37,0,47.19,25.13,47.19,52.62,0,2.17-.18,4.7-.36,7.23H525.7c2.71,12.48,11.39,19,23.69,19,9.22,0,15.91-2.89,23.51-9.95l15.73,13.93c-9,11.21-22.06,18.08-39.6,18.08C519.91,197.16,498.4,176.73,498.4,147.07Zm68.35-8.14c-1.63-12.29-8.86-20.61-20.43-20.61-11.4,0-18.81,8.14-21,20.61Z" style="fill: #fff"/>
          <path d="M606.22,147.07v-.36c0-27.67,21.16-50.45,50.82-50.45,18.26,0,29.65,6.14,38.7,16.27l-16.82,18.08c-6.15-6.51-12.3-10.66-22.06-10.66-13.75,0-23.51,12.11-23.51,26.4v.36c0,14.83,9.58,26.76,24.59,26.76,9.22,0,15.55-4,22.24-10.31l16.1,16.28c-9.41,10.31-20.25,17.72-39.6,17.72C627.56,197.16,606.22,174.74,606.22,147.07Z" style="fill: #fff"/>
          <path d="M710.83,63h27.49v70.35l32.19-35.27h32.91l-36.89,38.16L804.69,195H773.22l-25.31-39.6-9.59,10.12V195H710.83Z" style="fill: #fff"/>
          <path d="M806,147.07v-.36c0-27.85,22.42-50.45,52.62-50.45,30,0,52.26,22.24,52.26,50.09v.36c0,27.85-22.42,50.45-52.62,50.45C828.23,197.16,806,174.92,806,147.07Zm77.75,0v-.36c0-14.29-10.3-26.76-25.49-26.76-15.73,0-25.14,12.11-25.14,26.4v.36c0,14.28,10.31,26.76,25.5,26.76C874.34,173.47,883.74,161.36,883.74,147.07Z" style="fill: #fff"/>
          <path d="M928.46,98.06H956v13.75c6.33-8.14,14.47-15.55,28.39-15.55,20.8,0,32.91,13.74,32.91,36V195H989.76V140.92c0-13-6.14-19.71-16.63-19.71S956,127.9,956,140.92V195H928.46Z" style="fill: #fff"/>
        </g>
        <path d="M264.85,113.29h0a30.87,30.87,0,0,0-12.08-20.82,28.93,28.93,0,0,0-3.14-2.08l-9.13-5.27-12.87-7.44L198.07,60.62l-.76-.43a30.87,30.87,0,0,0-14.43-4.13,30.31,30.31,0,0,0-7.82.75,30.63,30.63,0,0,0-8.66,3.38l-5.77,3.33-13.36,7.72L137,77.18l-7.27,4.2h0l-9.18,5.3h0l-6.41,3.71a30.76,30.76,0,0,0-7,5.55h0a31,31,0,0,0-6.44,10.29,29.46,29.46,0,0,0-1.1,3.57,30.58,30.58,0,0,0-.89,7.36v60.42a30.54,30.54,0,0,0,.72,6.63,28.78,28.78,0,0,0,1,3.52,30.74,30.74,0,0,0,6.52,10.87,31.21,31.21,0,0,0,7.22,5.75l5.53,3.2,10.31,5.95,7.28,4.2,9.17,5.29h0l13.94,8,6.07,3.51a30.63,30.63,0,0,0,8.39,3.33,31,31,0,0,0,8.47.78,30.7,30.7,0,0,0,14.05-4.11l.84-.48,9.39-5.42,2.81-1.62L227.75,217,241,209.33l8.61-5a29.85,29.85,0,0,0,3.6-2.43,30.79,30.79,0,0,0,9.61-12.78,30.13,30.13,0,0,0,2.1-8.58h0a26.61,26.61,0,0,0,.15-3V117.16A31.05,31.05,0,0,0,264.85,113.29ZM216.14,130a121.5,121.5,0,0,0-10.2,11.31,118.69,118.69,0,0,0-8.5,12.12,115.55,115.55,0,0,0-6.14,11.26c-.57,1.18-1.12,2.37-1.64,3.57a117.64,117.64,0,0,0-5.07,13.71q-1.6,5.28-2.73,10.75a121,121,0,0,0-10-29.24,120.08,120.08,0,0,0-8-13.85,123,123,0,0,0-11.37-14.54c-1.68-1.86-3.44-3.66-5.24-5.41h0q-2.16-2.11-4.42-4.09c-.82-.73-1.65-1.44-2.49-2.14q3.19,1.16,6.47,2.12h0a120.55,120.55,0,0,0,18.6,4q2.86.39,5.78.65c3.51.3,7.08.45,10.67.45,1.32,0,2.62,0,3.93-.06,2.65-.08,5.27-.25,7.88-.5a121.59,121.59,0,0,0,29.72-6.66Q219.64,126.55,216.14,130Z" style="fill: #fff"/>
      </g>
    </g>
  </g>
</svg>
